<?xml version="1.0" encoding="utf-8"?>
<!-- Generator: Adobe Illustrator 26.2.1, SVG Export Plug-In . SVG Version: 6.00 Build 0)  -->
<svg version="1.1" id="Capa_1" xmlns="http://www.w3.org/2000/svg" xmlns:xlink="http://www.w3.org/1999/xlink" x="0px" y="0px"
	 viewBox="0 0 50 43.19" style="enable-background:new 0 0 50 43.19;" xml:space="preserve">
<style type="text/css">
	.st0{fill:none;stroke:#0AAFF1;stroke-width:15;stroke-miterlimit:10;}
	.st1{fill:#0AAFF1;}
	.st2{fill:#FFFFFF;}
	.st3{fill:#FFFFFF;stroke:#E0E5EE;stroke-miterlimit:10;}
	.st4{fill:#606060;}
	.st5{fill:none;stroke:#0084F6;stroke-width:11;stroke-miterlimit:10;}
	.st6{fill:#00B346;}
	.st7{fill:#00A3C8;}
	.st8{fill:none;stroke:#00A3C8;stroke-miterlimit:10;}
	.st9{fill:none;stroke:#FFFFFF;stroke-width:4;stroke-miterlimit:10;}
	.st10{fill:#606060;stroke:#606060;stroke-width:5;stroke-miterlimit:10;}
	.st11{fill:none;stroke:#FFFFFF;stroke-width:10;stroke-miterlimit:10;}
	.st12{fill:#606060;stroke:#FFFFFF;stroke-width:10;stroke-miterlimit:10;}
	.st13{fill:#E70027;}
	.st14{fill:#FFFFFC;}
	.st15{fill:#FFFFFF;stroke:#606060;stroke-width:10;stroke-miterlimit:10;}
	.st16{fill:none;stroke:#000000;stroke-width:10;stroke-miterlimit:10;}
	.st17{fill:#F2F5FA;}
	.st18{fill:#FF8A5C;}
	.st19{fill:#F8F8F8;stroke:#E0E5EE;stroke-miterlimit:10;}
	.st20{fill:none;stroke:#C6C6C6;stroke-miterlimit:10;}
	.st21{fill:#FF5470;}
	.st22{fill:none;stroke:#FFFFFF;stroke-width:7;stroke-miterlimit:10;}
	.st23{fill:#FF7523;}
	.st24{fill:none;stroke:#FFFFFF;stroke-miterlimit:10;}
	.st25{fill:none;stroke:#0AAFF1;stroke-linecap:round;stroke-linejoin:round;stroke-miterlimit:10;}
	.st26{fill:#0AAFF1;stroke:#FFFFFF;stroke-linecap:round;stroke-linejoin:round;stroke-miterlimit:10;}
	.st27{opacity:0.25;fill:#1E93D1;}
	.st28{fill:#1E93D1;}
	.st29{fill:#1C5392;}
	.st30{fill:none;stroke:#FFFFFF;stroke-linecap:round;stroke-linejoin:round;stroke-miterlimit:10;}
	.st31{fill:none;stroke:#0AAFF1;stroke-width:2;stroke-linecap:round;stroke-linejoin:round;stroke-miterlimit:10;}
	.st32{fill:none;stroke:#0AAFF1;stroke-width:4;stroke-linecap:round;stroke-linejoin:round;stroke-miterlimit:10;}
	.st33{fill:none;stroke:#FFFFFF;stroke-width:5;stroke-miterlimit:10;}
	.st34{fill:none;stroke:#FFFFFF;stroke-width:5;stroke-linecap:round;stroke-linejoin:round;stroke-miterlimit:10;}
	.st35{fill:none;stroke:#0AAFF1;stroke-width:24;stroke-miterlimit:10;}
	.st36{fill:none;stroke:#F2F5FA;stroke-width:10;stroke-miterlimit:10;}
	.st37{fill:#B8D637;}
	.st38{fill:#1D1D1B;}
	.st39{fill:#88898B;}
	.st40{fill:#9F9FA1;}
	.st41{fill:#D2D2D3;}
	.st42{fill:#F7F7F7;}
	.st43{fill:none;stroke:#FFFFFF;stroke-width:4;stroke-linecap:round;stroke-linejoin:round;stroke-miterlimit:10;}
	.st44{fill:#0AAFF1;stroke:#FFFFFF;stroke-width:1.5;stroke-linecap:round;stroke-linejoin:round;stroke-miterlimit:10;}
	.st45{fill:#FFFFFF;stroke:#0AAFF1;stroke-width:1.5;stroke-linecap:round;stroke-linejoin:round;stroke-miterlimit:10;}
	.st46{fill:#FFFFFF;stroke:#0AAFF1;stroke-width:3;stroke-linecap:round;stroke-linejoin:round;stroke-miterlimit:10;}
	.st47{fill:none;stroke:#0AAFF1;stroke-width:3;stroke-linecap:round;stroke-linejoin:round;stroke-miterlimit:10;}
	.st48{fill:none;}
	.st49{fill:#FFFFFF;stroke:#0AAFF1;stroke-width:1.5;stroke-miterlimit:10;}
	.st50{fill:#0AAFF1;stroke:#FFFFFF;stroke-width:1.5;stroke-miterlimit:10;}
	.st51{fill:none;stroke:#0AAFF1;stroke-width:2;stroke-miterlimit:10;}
	.st52{fill:#FFFFFF;stroke:#0AAFF1;stroke-width:2;stroke-miterlimit:10;}
	.st53{fill:#0AAFF1;stroke:#FFFFFF;stroke-miterlimit:10;}
	.st54{fill:none;stroke:#0AAFF1;stroke-miterlimit:10;}
	.st55{fill:#FFFFFF;stroke:#0AAFF1;stroke-miterlimit:10;}
	.st56{fill:none;stroke:#FFFFFF;stroke-width:2;stroke-miterlimit:10;}
	.st57{fill:#0AAFF1;stroke:#0AAFF1;stroke-width:3;stroke-miterlimit:10;}
	.st58{fill:none;stroke:#0AAFF1;stroke-width:4;stroke-miterlimit:10;}
	.st59{fill:none;stroke:#0AAFF1;stroke-width:2.25;stroke-miterlimit:10;}
	.st60{fill:#1FB900;}
	.st61{fill:none;stroke:#0AAFF1;stroke-width:13;stroke-linecap:round;stroke-linejoin:round;stroke-miterlimit:10;}
	.st62{fill:none;stroke:#FFFFFF;stroke-width:1.5;stroke-linecap:round;stroke-linejoin:round;stroke-miterlimit:10;}
	.st63{fill:#F7FAF9;}
	.st64{fill:none;stroke:#FFFFFF;stroke-width:0.5;stroke-miterlimit:10;}
	.st65{fill:#FFFFFF;stroke:#0AAFF1;stroke-width:3;stroke-miterlimit:10;}
	.st66{fill:#606060;stroke:#0AAFF1;stroke-width:15;stroke-miterlimit:10;}
	.st67{fill:none;stroke:#FFFFFF;stroke-width:1.5;stroke-miterlimit:10;}
	.st68{fill:none;stroke:#0AAFF1;stroke-width:8;stroke-miterlimit:10;}
	.st69{fill:#FFFFFF;stroke:#0AAFF1;stroke-width:0.75;stroke-linecap:round;stroke-linejoin:round;stroke-miterlimit:10;}
	.st70{fill:none;stroke:#0AAFF1;stroke-width:10;stroke-linecap:round;stroke-linejoin:round;stroke-miterlimit:10;}
	.st71{fill:none;stroke:#E70027;stroke-width:10;stroke-linecap:round;stroke-linejoin:round;stroke-miterlimit:10;}
	.st72{opacity:0.5;fill:none;stroke:#E70027;stroke-width:10;stroke-miterlimit:10;}
	.st73{opacity:0.5;fill:#E70027;}
	.st74{fill:none;stroke:#FFFFFC;stroke-width:10;stroke-linecap:round;stroke-linejoin:round;stroke-miterlimit:10;}
	.st75{fill:none;stroke:#606060;stroke-width:15;stroke-linecap:round;stroke-linejoin:round;stroke-miterlimit:10;}
	.st76{fill:#606060;stroke:#FFFFFF;stroke-width:7;stroke-miterlimit:10;}
	.st77{fill:#0AAFF1;stroke:#0AAFF1;stroke-miterlimit:10;}
	.st78{fill:none;stroke:#606060;stroke-width:10;stroke-linecap:round;stroke-linejoin:round;stroke-miterlimit:10;}
	.st79{fill:none;stroke:#FFFFFF;stroke-width:7;stroke-miterlimit:10;stroke-dasharray:5.8286,5.8286;}
	.st80{fill:none;stroke:#000000;stroke-width:19;stroke-miterlimit:10;}
	.st81{fill:#0AAFF1;stroke:#FFFFFF;stroke-width:2;stroke-miterlimit:10;}
	.st82{fill:#45B8FF;}
	.st83{opacity:0.5;fill:none;stroke:#45B8FF;stroke-width:1.75;stroke-miterlimit:10;}
	.st84{fill:none;stroke:#000000;stroke-width:1.75;stroke-miterlimit:10;}
	.st85{fill:none;stroke:#000000;stroke-width:1.5;stroke-miterlimit:10;}
	.st86{fill:none;stroke:#0AAFF1;stroke-width:1.75;stroke-miterlimit:10;}
	.st87{fill:none;stroke:#0AAFF1;stroke-width:1.75;stroke-linecap:round;stroke-linejoin:round;stroke-miterlimit:10;}
	.st88{fill:#FFFFFC;stroke:#FFFFFC;stroke-width:3;stroke-miterlimit:10;}
	.st89{fill:none;stroke:#000000;stroke-width:2;stroke-miterlimit:10;}
	.st90{fill:none;stroke:#FFFFFF;stroke-width:2;stroke-linecap:round;stroke-linejoin:round;stroke-miterlimit:10;}
	.st91{fill:#00A3C8;stroke:#606060;stroke-width:5;stroke-miterlimit:10;}
	.st92{fill:#0084F6;}
	.st93{fill:#CDCDC9;}
	.st94{fill-rule:evenodd;clip-rule:evenodd;fill:#FFFFFF;}
	.st95{fill:none;stroke:#0AAFF1;stroke-width:5;stroke-miterlimit:10;}
	.st96{fill:none;stroke:#0AAFF1;stroke-width:5;stroke-linecap:round;stroke-linejoin:round;stroke-miterlimit:10;}
	.st97{fill:#FFFFFF;stroke:#0AAFF1;stroke-width:5;stroke-linecap:round;stroke-linejoin:round;stroke-miterlimit:10;}
	.st98{fill:none;stroke:#0AAFF1;stroke-width:3;stroke-miterlimit:10;}
	.st99{fill:#0AAFF1;stroke:#0AAFF1;stroke-width:6;stroke-linecap:round;stroke-linejoin:round;stroke-miterlimit:10;}
	.st100{fill:#00D06F;}
	.st101{fill:#0AAFF1;stroke:#0AAFF1;stroke-width:6;stroke-miterlimit:10;}
	.st102{fill:none;stroke:#0AAFF1;stroke-width:2.5;stroke-linecap:round;stroke-linejoin:round;stroke-miterlimit:10;}
	.st103{fill:#FFFF00;stroke:#000000;stroke-width:3;stroke-miterlimit:10;}
	.st104{fill:#53FC00;}
	.st105{fill:#80A51B;}
	.st106{fill:none;stroke:#80A51B;stroke-width:0.999;}
	.st107{fill:none;stroke:#000000;stroke-width:0.75;stroke-miterlimit:10;}
	.st108{opacity:0.4;}
	.st109{fill:#0078D4;}
	.st110{fill:#45D7FA;}
	.st111{fill:#189AE1;}
	.st112{fill:none;stroke:#606060;stroke-width:13;stroke-linecap:round;stroke-linejoin:round;stroke-miterlimit:10;}
	.st113{fill:none;stroke:#FFFFFF;stroke-width:7;stroke-linecap:round;stroke-linejoin:round;stroke-miterlimit:10;}
	.st114{fill:#FFFFFF;stroke:#FFFFFF;stroke-miterlimit:10;}
	.st115{fill:#DADADA;}
	.st116{fill:none;stroke:#20FF77;stroke-miterlimit:10;}
</style>
<g>
	<path class="st2" d="M38.2,30.72c0,1.13,0.36,2.06,1.09,2.79s1.66,1.09,2.79,1.09c1.14,0,2.07-0.36,2.8-1.09
		c0.73-0.73,1.1-1.66,1.1-2.79c0-1.15-0.37-2.09-1.1-2.81c-0.73-0.73-1.67-1.09-2.8-1.09c-1.13,0-2.06,0.36-2.79,1.09
		S38.2,29.57,38.2,30.72z"/>
	<path class="st2" d="M49.49,38.56c-0.34-0.48-0.78-0.84-1.34-1.08c-1.06-0.47-2.08-0.83-3.06-1.08s-1.99-0.37-3.01-0.37
		c-1.01,0-2.01,0.12-3,0.35c-0.99,0.24-2.03,0.6-3.1,1.09c-0.54,0.25-0.97,0.62-1.3,1.1c-0.33,0.48-0.5,1.04-0.5,1.69v2.58H50v-2.58
		C50,39.61,49.83,39.04,49.49,38.56z"/>
	<path class="st2" d="M7.9,34.6c1.14,0,2.07-0.36,2.8-1.09c0.73-0.73,1.1-1.66,1.1-2.79c0-1.15-0.37-2.09-1.1-2.81
		c-0.73-0.73-1.67-1.09-2.8-1.09s-2.07,0.36-2.79,1.09s-1.09,1.66-1.09,2.81c0,1.13,0.36,2.06,1.09,2.79S6.76,34.6,7.9,34.6z"/>
	<path class="st2" d="M13.97,37.48c-1.06-0.47-2.08-0.83-3.06-1.08s-1.99-0.37-3.01-0.37c-1.01,0-2.01,0.12-3,0.35
		c-0.99,0.24-2.03,0.6-3.1,1.09c-0.54,0.25-0.97,0.62-1.3,1.1C0.17,39.06,0,39.63,0,40.27v2.58h15.82v-2.58
		c0-0.66-0.17-1.23-0.51-1.71C14.97,38.08,14.53,37.72,13.97,37.48z"/>
	<path class="st2" d="M24.99,7.78c1.14,0,2.07-0.36,2.8-1.09c0.73-0.73,1.1-1.66,1.1-2.79c0-1.15-0.37-2.09-1.1-2.81
		C27.06,0.36,26.12,0,24.99,0s-2.07,0.36-2.79,1.09c-0.73,0.73-1.09,1.66-1.09,2.81c0,1.14,0.36,2.07,1.09,2.79
		S23.85,7.78,24.99,7.78z"/>
	<path class="st2" d="M31.06,10.66c-1.06-0.47-2.08-0.83-3.06-1.08s-1.99-0.37-3.01-0.37c-1.01,0-2.01,0.12-3,0.35
		c-0.99,0.24-2.03,0.6-3.1,1.09c-0.54,0.25-0.97,0.62-1.3,1.1s-0.5,1.04-0.5,1.69v2.58h15.82v-2.58c0-0.66-0.17-1.23-0.51-1.71
		S31.62,10.9,31.06,10.66z"/>
	<path class="st2" d="M14.95,17.8v-1.77v-0.18c-2.69,2.29-4.58,5.48-5.22,9.1c0.48,0.14,0.94,0.33,1.36,0.58
		C11.54,22.55,12.92,19.86,14.95,17.8z"/>
	<path class="st2" d="M17.93,39.84c0.01,0.14,0.03,0.28,0.03,0.43v1.21c2.11,1.08,4.5,1.7,7.04,1.7c2.53,0,4.92-0.62,7.04-1.7v-1.21
		c0-0.15,0.02-0.29,0.03-0.43c-2.08,1.21-4.49,1.92-7.07,1.92S20.01,41.05,17.93,39.84z"/>
	<path class="st2" d="M40.27,24.95c-0.64-3.62-2.53-6.8-5.22-9.1v0.18v1.77c2.02,2.06,3.4,4.74,3.86,7.72
		C39.34,25.27,39.79,25.09,40.27,24.95z"/>
	<path class="st2" d="M23.2,32.36c0.27,0,0.52-0.11,0.71-0.29l7.19-7.19c0.39-0.39,0.39-1.02,0-1.41s-1.02-0.39-1.41,0l-6.48,6.48
		l-2.87-2.87c-0.39-0.39-1.02-0.39-1.41,0s-0.39,1.02,0,1.41l3.58,3.58C22.68,32.26,22.93,32.36,23.2,32.36z"/>
</g>
</svg>
