<?xml version="1.0" encoding="utf-8"?>
<!-- Generator: Adobe Illustrator 24.0.2, SVG Export Plug-In . SVG Version: 6.00 Build 0)  -->
<svg version="1.1" id="Capa_1" xmlns="http://www.w3.org/2000/svg" xmlns:xlink="http://www.w3.org/1999/xlink" x="0px" y="0px"
	 viewBox="0 0 400 100" style="enable-background:new 0 0 400 100;" xml:space="preserve">
<style type="text/css">
	.st0{fill:#D0D0D0;}
	.st1{fill:#AFCA0A;}
</style>
<g>
	<g>
		<path class="st0" d="M72.83,63.4H56.68l-3.03,9.34h-9.67l15.43-44.73H70.1l15.46,44.73h-9.67L72.83,63.4z M59.02,56.17H70.5
			l-5.76-17.63L59.02,56.17z"/>
		<path class="st0" d="M90.14,50.31c0-3.46,0.52-6.61,1.55-9.44c1.03-2.83,2.5-5.25,4.41-7.25s4.23-3.55,6.96-4.64
			s5.79-1.63,9.19-1.63c2.24,0,4.13,0.18,5.67,0.53c1.55,0.35,2.88,0.76,4,1.22l-1.68,6.64c-1.03-0.37-2.19-0.67-3.47-0.89
			c-1.28-0.22-2.65-0.33-4.1-0.33c-1.91,0-3.63,0.31-5.16,0.92c-1.54,0.61-2.84,1.56-3.91,2.85c-1.08,1.28-1.9,2.92-2.48,4.9
			c-0.58,1.98-0.87,4.36-0.87,7.12c0,2.76,0.3,5.15,0.89,7.15c0.59,2.01,1.43,3.66,2.52,4.95c1.09,1.29,2.4,2.25,3.95,2.88
			s3.26,0.94,5.15,0.94c1.78,0,3.4-0.18,4.87-0.54c1.47-0.36,2.76-0.76,3.88-1.2l1.55,6.68c-1.27,0.64-2.83,1.17-4.67,1.6
			c-1.84,0.43-4.09,0.64-6.74,0.64c-3.29,0-6.26-0.55-8.9-1.66c-2.64-1.11-4.9-2.67-6.76-4.69c-1.86-2.02-3.3-4.45-4.31-7.29
			C90.64,56.93,90.14,53.78,90.14,50.31z"/>
		<path class="st0" d="M129.31,28.01h16.55c2.85,0,5.38,0.35,7.58,1.04s4.05,1.66,5.54,2.91c1.49,1.25,2.63,2.75,3.4,4.51
			c0.78,1.75,1.17,3.71,1.17,5.86c0,2.15-0.39,4.11-1.17,5.87c-0.78,1.77-1.91,3.28-3.4,4.56c-1.49,1.27-3.34,2.25-5.54,2.94
			c-2.2,0.69-4.73,1.04-7.58,1.04h-6.74v16.02h-9.8V28.01z M139.11,35.18v14.37h6.02c5.59,0,8.39-2.41,8.39-7.24
			c0-2.46-0.7-4.26-2.09-5.41c-1.39-1.15-3.49-1.73-6.3-1.73H139.11z"/>
	</g>
	<g>
		<path class="st1" d="M204.97,35.11V26.6h-31.38v8.51h11.33v25.11c0,6.55,5.33,11.88,11.88,11.88h3.04v-8.51h-3.04
			c-1.86,0-3.37-1.51-3.37-3.37V35.11H204.97z"/>
		<g>
			<path class="st1" d="M348.31,26.64c1.1,0,2.12,0.18,3.06,0.54c0.94,0.36,1.75,0.87,2.44,1.54c0.69,0.67,1.23,1.48,1.62,2.43
				c0.39,0.95,0.58,2.02,0.58,3.2c0,1.18-0.19,2.25-0.58,3.2c-0.39,0.95-0.93,1.76-1.62,2.43c-0.69,0.67-1.5,1.18-2.44,1.54
				c-0.94,0.36-1.96,0.54-3.06,0.54s-2.12-0.18-3.07-0.54c-0.94-0.36-1.76-0.87-2.45-1.54c-0.69-0.67-1.23-1.48-1.62-2.43
				c-0.39-0.95-0.59-2.02-0.59-3.2c0-1.18,0.2-2.25,0.59-3.2c0.39-0.95,0.93-1.76,1.62-2.43c0.69-0.67,1.5-1.18,2.45-1.54
				C346.19,26.82,347.21,26.64,348.31,26.64z M348.31,41c0.88,0,1.71-0.13,2.49-0.4c0.78-0.27,1.46-0.68,2.03-1.23
				c0.58-0.55,1.03-1.24,1.37-2.08c0.34-0.83,0.51-1.82,0.51-2.95c0-1.13-0.17-2.11-0.51-2.95c-0.34-0.83-0.79-1.53-1.37-2.08
				c-0.58-0.55-1.25-0.96-2.03-1.23c-0.78-0.27-1.61-0.4-2.49-0.4c-0.89,0-1.72,0.13-2.5,0.4c-0.78,0.27-1.46,0.68-2.03,1.23
				c-0.58,0.55-1.03,1.24-1.37,2.08c-0.33,0.83-0.5,1.82-0.5,2.95c0,1.13,0.17,2.11,0.5,2.95c0.33,0.83,0.79,1.53,1.37,2.08
				c0.58,0.55,1.25,0.96,2.03,1.23C346.59,40.87,347.43,41,348.31,41z M345.23,30.23h3.28c0.44,0,0.86,0.05,1.24,0.15
				c0.39,0.1,0.73,0.25,1.01,0.46c0.29,0.21,0.51,0.47,0.68,0.79c0.17,0.32,0.25,0.7,0.25,1.14c0,0.25-0.05,0.48-0.14,0.69
				s-0.23,0.41-0.39,0.58c-0.17,0.17-0.36,0.32-0.58,0.46c-0.22,0.13-0.46,0.24-0.71,0.33l1.97,3.36h-1.37l-1.82-3.13h-2.08v3.13
				h-1.34V30.23z M346.57,31.31v2.67H349c0.15-0.02,0.3-0.06,0.46-0.11c0.16-0.05,0.31-0.12,0.45-0.21
				c0.14-0.09,0.25-0.21,0.34-0.35c0.09-0.14,0.13-0.32,0.13-0.53c0-0.53-0.18-0.9-0.53-1.12c-0.35-0.22-0.86-0.33-1.53-0.33H346.57
				z"/>
		</g>
		<path class="st1" d="M277.44,72.09h-8.51V52.4c0-3.55-2.89-6.44-6.44-6.44c-3.55,0-6.44,2.89-6.44,6.44v19.7h-8.51V52.4
			c0-8.25,6.71-14.95,14.95-14.95c8.25,0,14.96,6.71,14.96,14.95V72.09z"/>
		<path class="st1" d="M240.66,56.82h-27.17c0.39,2.4,1.44,4.3,3.14,5.72c1.7,1.41,3.88,2.12,6.52,2.12c3.16,0,5.88-1.1,8.15-3.32
			l7.13,3.35c-1.78,2.52-3.9,4.38-6.38,5.59c-2.48,1.21-5.42,1.81-8.83,1.81c-5.29,0-9.59-1.67-12.92-5
			c-3.33-3.33-4.99-7.51-4.99-12.53c0-5.14,1.66-9.41,4.97-12.81c3.31-3.4,7.47-5.1,12.47-5.1c5.31,0,9.63,1.7,12.95,5.1
			c3.32,3.4,4.99,7.89,4.99,13.46L240.66,56.82z M232.2,50.16c-0.56-1.88-1.66-3.41-3.31-4.59c-1.65-1.18-3.55-1.77-5.73-1.77
			c-2.36,0-4.43,0.66-6.21,1.98c-1.12,0.83-2.15,2.28-3.1,4.37H232.2z"/>
		<path class="st1" d="M295.58,38.84v-12.2h-8.51v12.2h-6.58l0,0v6.66v0h6.58v14.71c0,6.55,5.33,11.88,11.88,11.88h3.21v-8.51h-3.21
			c-1.86,0-3.37-1.51-3.37-3.37V45.5h6.58v0v-6.66l0,0H295.58z"/>
		<path class="st1" d="M322.87,36.61c-9.78,0-17.74,7.96-17.74,17.74c0,9.78,7.96,17.74,17.74,17.74c9.78,0,17.74-7.96,17.74-17.74
			C340.61,44.57,332.65,36.61,322.87,36.61z M322.45,60.06c-0.53-0.46-1.19-0.73-1.89-0.79l-7.92-0.62l15.76-15.54l0.08,22.13
			L322.45,60.06z"/>
	</g>
</g>
</svg>
